<svg width="12" height="12" viewBox="0 0 12 12" fill="none" xmlns="http://www.w3.org/2000/svg">
<path d="M4.47252 11.0001C3.64006 11.0065 2.89437 10.4863 2.61302 9.70281C2.33167 8.91931 2.57609 8.04357 3.22252 7.51901C2.76402 7.14792 2.49763 6.58961 2.49763 5.99976C2.49763 5.4099 2.76402 4.8516 3.22252 4.48051C2.57589 3.95613 2.33132 3.08032 2.61272 2.29679C2.89412 1.51326 3.64001 0.993169 4.47252 0.999943H7.52752C8.36002 0.993169 9.10592 1.51326 9.38732 2.29679C9.66872 3.08032 9.42415 3.95613 8.77752 4.48051C9.42395 5.00507 9.66836 5.88081 9.38702 6.66431C9.10567 7.44781 8.35998 7.96801 7.52752 7.96151C7.14301 7.96198 6.76676 7.85006 6.44502 7.63951V9.03951C6.44033 10.125 5.55802 11.0019 4.47252 11.0001ZM4.46152 7.96201C3.86929 7.97136 3.39587 8.45739 3.40208 9.04966C3.40829 9.64194 3.8918 10.1179 4.4841 10.1149C5.07639 10.1118 5.55495 9.63081 5.55502 9.03851V7.96201H4.46102H4.46152ZM7.52802 4.92351C6.93421 4.92654 6.45501 5.40984 6.45702 6.00366C6.45905 6.59747 6.94153 7.0775 7.53534 7.0765C8.12916 7.07549 8.61002 6.59383 8.61002 6.00001C8.60781 5.40405 8.12348 4.9224 7.52752 4.92351H7.52802ZM4.47302 4.92349C4.08842 4.92146 3.73195 5.12474 3.53787 5.45678C3.34379 5.78882 3.3416 6.19918 3.53212 6.53328C3.72264 6.86738 4.07692 7.07445 4.46152 7.07651H5.55502V4.92349H4.47302ZM6.44502 1.88501V4.03852H7.52702C8.10577 4.04121 8.58328 3.58622 8.60852 3.00801V3.22551V2.96151C8.60604 2.36625 8.12279 1.88501 7.52752 1.88501H6.44502ZM4.47202 1.88501C4.08742 1.88501 3.73204 2.09019 3.53974 2.42326C3.34744 2.75633 3.34744 3.16669 3.53974 3.49976C3.73204 3.83283 4.08742 4.03801 4.47202 4.03801H5.55502V1.88501H4.47202Z" fill="#44F1A6"/>
</svg>
