<svg width="12" height="12" viewBox="0 0 12 12" fill="none" xmlns="http://www.w3.org/2000/svg">
<path d="M1 2V9L3.4 7.2C3.57291 7.06982 3.78357 6.9996 4 7H8C8.55228 7 9 6.55228 9 6V2C9 1.44772 8.55228 1 8 1H2C1.44772 1 1 1.44772 1 2ZM2 7V2H8V6H3.667C3.45054 5.99942 3.23982 6.06966 3.067 6.2L2 7Z" fill="#44F1A6"/>
<path d="M11 11V4.5C11 3.94772 10.5523 3.5 10 3.5V9L8.933 8.2C8.76018 8.06966 8.54946 7.99942 8.333 8H3.5C3.5 8.55228 3.94772 9 4.5 9H8C8.21643 8.9996 8.42709 9.06982 8.6 9.2L11 11Z" fill="#44F1A6"/>
</svg>
