<svg width="12" height="12" viewBox="0 0 12 12" fill="none" xmlns="http://www.w3.org/2000/svg">
<path d="M6.01301 1C3.56647 0.999686 1.48092 2.77399 1.08921 5.18897C0.6975 7.60394 2.11531 9.94649 4.43651 10.7195C4.68651 10.7645 4.77601 10.611 4.77601 10.479C4.77601 10.3605 4.77201 10.0465 4.77051 9.629C3.38301 9.929 3.09001 8.96 3.09001 8.96C2.99867 8.65848 2.8023 8.39967 2.53651 8.2305C2.08651 7.921 2.57101 7.928 2.57101 7.928C2.89135 7.97192 3.17328 8.16173 3.33451 8.442C3.47098 8.69013 3.70089 8.87348 3.97316 8.95131C4.24543 9.02914 4.53752 8.99501 4.78451 8.8565C4.80772 8.6035 4.92028 8.36704 5.10201 8.1895C3.99501 8.064 2.83101 7.636 2.83101 5.7245C2.82486 5.2301 3.00846 4.75215 3.34401 4.389C3.19218 3.95866 3.21006 3.48663 3.39401 3.069C3.39401 3.069 3.81251 2.9345 4.76501 3.5795C5.58193 3.3555 6.44408 3.3555 7.26101 3.5795C8.21401 2.934 8.63201 3.069 8.63201 3.069C8.81681 3.48643 8.8347 3.95879 8.68201 4.389C9.01879 4.75211 9.20223 5.23132 9.19401 5.7265C9.19401 7.643 8.02901 8.064 6.91801 8.1875C7.15767 8.43253 7.28058 8.76867 7.25551 9.1105C7.25551 9.7775 7.24951 10.3155 7.24951 10.479C7.24951 10.6125 7.33851 10.7675 7.59301 10.7185C9.91324 9.94418 11.3295 7.60149 10.937 5.18716C10.5445 2.77283 8.45904 0.99944 6.01301 1Z" fill="#44F1A6"/>
</svg>
