<svg width="36" height="36" viewBox="0 0 36 36" fill="none" xmlns="http://www.w3.org/2000/svg">
<path d="M13.262 4.71973H15.1565V6.61428H13.262V4.71973Z" fill="white"/>
<path d="M15.1565 4.71973H17.0511V6.61428H15.1565V4.71973Z" fill="white"/>
<path d="M17.051 4.71973H18.9456V6.61428H17.051V4.71973Z" fill="white"/>
<path d="M9.4729 6.61438H11.3675V8.50894H9.4729V6.61438Z" fill="white"/>
<path d="M11.3674 6.61438H13.262V8.50894H11.3674V6.61438Z" fill="white"/>
<path d="M13.262 6.61438H15.1565V8.50894H13.262V6.61438Z" fill="white"/>
<path d="M15.1565 6.61438H17.0511V8.50894H15.1565V6.61438Z" fill="white"/>
<path d="M17.051 6.61438H18.9456V8.50894H17.051V6.61438Z" fill="white"/>
<path d="M18.9456 6.61438H20.8401V8.50894H18.9456V6.61438Z" fill="white"/>
<path d="M20.8401 6.61438H22.7346V8.50894H20.8401V6.61438Z" fill="white"/>
<path d="M7.57812 8.50891H9.47268V10.4035H7.57812V8.50891Z" fill="white"/>
<path d="M9.4729 8.50891H11.3675V10.4035H9.4729V8.50891Z" fill="white"/>
<path d="M11.3674 8.50891H13.262V10.4035H11.3674V8.50891Z" fill="white"/>
<path d="M13.262 8.50891H15.1565V10.4035H13.262V8.50891Z" fill="white"/>
<path d="M15.1565 8.50891H17.0511V10.4035H15.1565V8.50891Z" fill="white"/>
<path d="M17.051 8.50891H18.9456V10.4035H17.051V8.50891Z" fill="white"/>
<path d="M18.9456 8.50891H20.8401V10.4035H18.9456V8.50891Z" fill="white"/>
<path d="M20.8401 8.50891H22.7346V10.4035H20.8401V8.50891Z" fill="white"/>
<path d="M22.7346 8.50891H24.6292V10.4035H22.7346V8.50891Z" fill="white"/>
<path d="M7.57812 10.4034H9.47268V12.298H7.57812V10.4034Z" fill="white"/>
<path d="M9.4729 10.4034H11.3675V12.298H9.4729V10.4034Z" fill="white"/>
<path d="M15.1565 10.4034H17.0511V12.298H15.1565V10.4034Z" fill="white"/>
<path d="M17.051 10.4034H18.9456V12.298H17.051V10.4034Z" fill="white"/>
<path d="M22.7346 10.4034H24.6292V12.298H22.7346V10.4034Z" fill="white"/>
<path d="M7.57812 12.298H9.47268V14.1925H7.57812V12.298Z" fill="white"/>
<path d="M9.4729 12.298H11.3675V14.1925H9.4729V12.298Z" fill="white"/>
<path d="M15.1565 12.298H17.0511V14.1925H15.1565V12.298Z" fill="white"/>
<path d="M17.051 12.298H18.9456V14.1925H17.051V12.298Z" fill="white"/>
<path d="M22.7346 12.298H24.6292V14.1925H22.7346V12.298Z" fill="white"/>
<path d="M7.57812 14.1925H9.47268V16.0871H7.57812V14.1925Z" fill="white"/>
<path d="M9.4729 14.1925H11.3675V16.0871H9.4729V14.1925Z" fill="white"/>
<path d="M11.3674 14.1925H13.262V16.0871H11.3674V14.1925Z" fill="white"/>
<path d="M13.262 14.1925H15.1565V16.0871H13.262V14.1925Z" fill="white"/>
<path d="M15.1565 14.1925H17.0511V16.0871H15.1565V14.1925Z" fill="white"/>
<path d="M17.051 14.1925H18.9456V16.0871H17.051V14.1925Z" fill="white"/>
<path d="M18.9456 14.1925H20.8401V16.0871H18.9456V14.1925Z" fill="white"/>
<path d="M20.8401 14.1925H22.7346V16.0871H20.8401V14.1925Z" fill="white"/>
<path d="M22.7346 14.1925H24.6292V16.0871H22.7346V14.1925Z" fill="white"/>
<path d="M13.262 16.0872H15.1565V17.9821H13.262V16.0872Z" fill="white"/>
<path d="M15.1565 16.0872H17.0511V17.9821H15.1565V16.0872Z" fill="white"/>
<path d="M17.051 16.0872H18.9456V17.9821H17.051V16.0872Z" fill="white"/>
<path d="M18.9456 16.0872H20.8401V17.9821H18.9456V16.0872Z" fill="white"/>
<path d="M13.262 17.9817H15.1565V19.8762H13.262V17.9817Z" fill="white"/>
<path d="M15.1565 17.9817H17.0511V19.8762H15.1565V17.9817Z" fill="white"/>
<path d="M17.051 17.9817H18.9456V19.8762H17.051V17.9817Z" fill="white"/>
<path d="M18.9456 17.9817H20.8401V19.8762H18.9456V17.9817Z" fill="white"/>
<path d="M28.4185 19.8762H30.3134V21.7708H28.4185V19.8762Z" fill="#44F1A6"/>
<path d="M30.3132 19.8762H32.2078V21.7708H30.3132V19.8762Z" fill="#44F1A6"/>
<path d="M28.4185 21.7708H30.3134V23.6653H28.4185V21.7708Z" fill="#44F1A6"/>
<path d="M30.3132 21.7708H32.2078V23.6653H30.3132V21.7708Z" fill="#44F1A6"/>
<path d="M32.2078 21.7708H34.1023V23.6653H32.2078V21.7708Z" fill="#44F1A6"/>
<path d="M30.3132 23.6653H32.2078V25.5598H30.3132V23.6653Z" fill="#44F1A6"/>
<path d="M32.2078 23.6653H34.1023V25.5598H32.2078V23.6653Z" fill="#44F1A6"/>
<path d="M32.2078 25.5603H34.1023V27.4545H32.2078V25.5603Z" fill="#44F1A6"/>
<path d="M28.4185 17.9817H30.3134V19.8762H28.4185V17.9817Z" fill="#44F1A6"/>
<path d="M26.5237 19.8762H28.4186V21.7708H26.5237V19.8762Z" fill="#44F1A6"/>
<path d="M24.6292 21.7708H26.5237V23.6653H24.6292V21.7708Z" fill="#44F1A6"/>
<path d="M22.7346 23.6653H24.6292V25.5598H22.7346V23.6653Z" fill="#44F1A6"/>
<path d="M20.8401 25.5603H22.7346V27.4545H20.8401V25.5603Z" fill="#44F1A6"/>
<path d="M18.9456 27.4548H20.8401V29.3494H18.9456V27.4548Z" fill="#44F1A6"/>
<path d="M17.051 29.3494H18.9456V31.2439H17.051V29.3494Z" fill="#44F1A6"/>
<path d="M15.1565 31.2439H17.0511V33.1385H15.1565V31.2439Z" fill="#44F1A6"/>
<path d="M13.262 19.8762H15.1565V21.7708H13.262V19.8762Z" fill="#252525"/>
<path d="M15.1565 19.8762H17.0511V21.7708H15.1565V19.8762Z" fill="#252525"/>
<path d="M17.051 19.8762H18.9456V21.7708H17.051V19.8762Z" fill="#252525"/>
<path d="M7.57812 21.7708H9.47268V23.6653H7.57812V21.7708Z" fill="#252525"/>
<path d="M7.57812 23.6653H9.47268V25.5598H7.57812V23.6653Z" fill="#252525"/>
<path d="M9.4729 0.93042L11.3675 0.930457V2.82505H9.4729V0.93042Z" fill="#252525"/>
<path d="M11.3674 0.93042L13.262 0.930457V2.82505H11.3674V0.93042Z" fill="#252525"/>
<path d="M13.262 0.93042L15.1565 0.930457V2.82505H13.262V0.93042Z" fill="#252525"/>
<path d="M15.1565 0.93042L17.0511 0.930457V2.82505H15.1565V0.93042Z" fill="#252525"/>
<path d="M3.78906 2.82495L5.68362 2.82499V4.71974H3.78906V2.82495Z" fill="#252525"/>
<path d="M5.68359 2.82495L7.57815 2.82499V4.71974H5.68359V2.82495Z" fill="#252525"/>
<path d="M7.57812 2.82495L9.47268 2.82499V4.71974H7.57812V2.82495Z" fill="#252525"/>
<path d="M9.4729 2.82495L11.3675 2.82499V4.71974H9.4729V2.82495Z" fill="#252525"/>
<path d="M11.3674 2.82495L13.262 2.82499V4.71974H11.3674V2.82495Z" fill="#252525"/>
<path d="M13.262 2.82495L15.1565 2.82499V4.71974H13.262V2.82495Z" fill="#252525"/>
<path d="M15.1565 2.82495L17.0511 2.82499V4.71974H15.1565V2.82495Z" fill="#252525"/>
<path d="M17.051 2.82495L18.9456 2.82499V4.71974H17.051V2.82495Z" fill="#252525"/>
<path d="M0 4.71973H1.89456V6.61428H0V4.71973Z" fill="#252525"/>
<path d="M1.89453 4.71973H3.78909V6.61428H1.89453V4.71973Z" fill="#252525"/>
<path d="M3.78906 4.71973H5.68362V6.61428H3.78906V4.71973Z" fill="#252525"/>
<path d="M5.68359 4.71973H7.57815V6.61428H5.68359V4.71973Z" fill="#252525"/>
<path d="M7.57812 4.71973H9.47268V6.61428H7.57812V4.71973Z" fill="#252525"/>
<path d="M9.4729 4.71973H11.3675V6.61428H9.4729V4.71973Z" fill="#252525"/>
<path d="M11.3674 4.71973H13.262V6.61428H11.3674V4.71973Z" fill="#252525"/>
<path d="M18.9456 4.71973H20.8401V6.61428H18.9456V4.71973Z" fill="#252525"/>
<path d="M20.8401 4.71973H22.7346V6.61428H20.8401V4.71973Z" fill="#252525"/>
<path d="M0 6.61438H1.89456V8.50894H0V6.61438Z" fill="#252525"/>
<path d="M1.89453 6.61438H3.78909V8.50894H1.89453V6.61438Z" fill="#252525"/>
<path d="M3.78906 6.61438H5.68362V8.50894H3.78906V6.61438Z" fill="#252525"/>
<path d="M5.68359 6.61438H7.57815V8.50894H5.68359V6.61438Z" fill="#252525"/>
<path d="M7.57812 6.61438H9.47268V8.50894H7.57812V6.61438Z" fill="#252525"/>
<path d="M22.7346 6.61438H24.6292V8.50894H22.7346V6.61438Z" fill="#252525"/>
<path d="M0 8.50891H1.89456V10.4035H0V8.50891Z" fill="#252525"/>
<path d="M1.89453 8.50891H3.78909V10.4035H1.89453V8.50891Z" fill="#252525"/>
<path d="M3.78906 8.50891H5.68362V10.4035H3.78906V8.50891Z" fill="#252525"/>
<path d="M5.68359 8.50891H7.57815V10.4035H5.68359V8.50891Z" fill="#252525"/>
<path d="M24.6292 8.50891H26.5237V10.4035H24.6292V8.50891Z" fill="#252525"/>
<path d="M0 10.4034H1.89456V12.298H0V10.4034Z" fill="#252525"/>
<path d="M1.89453 10.4034H3.78909V12.298H1.89453V10.4034Z" fill="#252525"/>
<path d="M3.78906 10.4034H5.68362V12.298H3.78906V10.4034Z" fill="#252525"/>
<path d="M5.68359 10.4034H7.57815V12.298H5.68359V10.4034Z" fill="#252525"/>
<path d="M11.3674 10.4034H13.262V12.298H11.3674V10.4034Z" fill="#252525"/>
<path d="M13.262 10.4034H15.1565V12.298H13.262V10.4034Z" fill="#252525"/>
<path d="M18.946 10.4034H20.8402V12.298H18.946V10.4034Z" fill="#252525"/>
<path d="M20.8401 10.4034H22.7346V12.298H20.8401V10.4034Z" fill="#252525"/>
<path d="M24.6292 10.4034H26.5237V12.298H24.6292V10.4034Z" fill="#252525"/>
<path d="M0 12.298H1.89456V14.1925H0V12.298Z" fill="#252525"/>
<path d="M1.89453 12.298H3.78909V14.1925H1.89453V12.298Z" fill="#252525"/>
<path d="M3.78906 12.298H5.68362V14.1925H3.78906V12.298Z" fill="#252525"/>
<path d="M5.68359 12.298H7.57815V14.1925H5.68359V12.298Z" fill="#252525"/>
<path d="M11.3674 12.298H13.262V14.1925H11.3674V12.298Z" fill="#252525"/>
<path d="M13.262 12.298H15.1565V14.1925H13.262V12.298Z" fill="#252525"/>
<path d="M18.9456 12.298H20.8401V14.1925H18.9456V12.298Z" fill="#252525"/>
<path d="M20.8401 12.298H22.7346V14.1925H20.8401V12.298Z" fill="#252525"/>
<path d="M24.6292 12.298H26.5237V14.1925H24.6292V12.298Z" fill="#252525"/>
<path d="M0 14.1925H1.89456V16.0871H0V14.1925Z" fill="#252525"/>
<path d="M1.89453 14.1925H3.78909V16.0871H1.89453V14.1925Z" fill="#252525"/>
<path d="M3.78906 14.1925H5.68362V16.0871H3.78906V14.1925Z" fill="#252525"/>
<path d="M5.68359 14.1925H7.57815V16.0871H5.68359V14.1925Z" fill="#252525"/>
<path d="M24.6292 14.1925H26.5237V16.0871H24.6292V14.1925Z" fill="#252525"/>
<path d="M1.89453 16.0872H3.78909V17.9821H1.89453V16.0872Z" fill="#252525"/>
<path d="M3.78906 16.0872H5.68362V17.9821H3.78906V16.0872Z" fill="#252525"/>
<path d="M5.68359 16.0872H7.57815V17.9821H5.68359V16.0872Z" fill="#252525"/>
<path d="M7.57812 16.0872H9.47268V17.9821H7.57812V16.0872Z" fill="#252525"/>
<path d="M9.4729 16.0872H11.3675V17.9821H9.4729V16.0872Z" fill="#252525"/>
<path d="M11.3674 16.0872H13.262V17.9821H11.3674V16.0872Z" fill="#252525"/>
<path d="M20.8401 16.0872H22.7346V17.9821H20.8401V16.0872Z" fill="#252525"/>
<path d="M22.7346 16.0872H24.6292V17.9821H22.7346V16.0872Z" fill="#252525"/>
<path d="M28.4185 16.0872H30.3134V17.9821H28.4185V16.0872Z" fill="#252525"/>
<path d="M30.3132 16.0872H32.2078V17.9821H30.3132V16.0872Z" fill="#252525"/>
<path d="M3.78906 17.9817H5.68362V19.8762H3.78906V17.9817Z" fill="#252525"/>
<path d="M5.68359 17.9817H7.57815V19.8762H5.68359V17.9817Z" fill="#252525"/>
<path d="M7.57812 17.9817H9.47268V19.8762H7.57812V17.9817Z" fill="#252525"/>
<path d="M9.4729 17.9817H11.3675V19.8762H9.4729V17.9817Z" fill="#252525"/>
<path d="M11.3674 17.9817H13.262V19.8762H11.3674V17.9817Z" fill="#252525"/>
<path d="M20.8401 17.9817H22.7346V19.8762H20.8401V17.9817Z" fill="#252525"/>
<path d="M26.5237 17.9817H28.4186V19.8762H26.5237V17.9817Z" fill="#252525"/>
<path d="M30.3132 17.9817H32.2078V19.8762H30.3132V17.9817Z" fill="#252525"/>
<path d="M5.68359 19.8762H7.57815V21.7708H5.68359V19.8762Z" fill="#252525"/>
<path d="M7.57812 19.8762H9.47268V21.7708H7.57812V19.8762Z" fill="#252525"/>
<path d="M9.4729 19.8762H11.3675V21.7708H9.4729V19.8762Z" fill="#252525"/>
<path d="M11.3674 19.8762H13.262V21.7708H11.3674V19.8762Z" fill="#252525"/>
<path d="M18.9456 19.8762H20.8401V21.7708H18.9456V19.8762Z" fill="#252525"/>
<path d="M24.6292 19.8762H26.5237V21.7708H24.6292V19.8762Z" fill="#252525"/>
<path d="M32.2078 19.8762H34.1023V21.7708H32.2078V19.8762Z" fill="#252525"/>
<path d="M9.4729 21.7708H11.3675V23.6653H9.4729V21.7708Z" fill="#252525"/>
<path d="M11.3674 21.7708H13.262V23.6653H11.3674V21.7708Z" fill="#252525"/>
<path d="M13.262 21.7708H15.1565V23.6653H13.262V21.7708Z" fill="#252525"/>
<path d="M15.1565 21.7708H17.0511V23.6653H15.1565V21.7708Z" fill="#252525"/>
<path d="M17.051 21.7708H18.9456V23.6653H17.051V21.7708Z" fill="#252525"/>
<path d="M18.9456 21.7708H20.8401V23.6653H18.9456V21.7708Z" fill="#252525"/>
<path d="M22.7346 21.7708H24.6292V23.6653H22.7346V21.7708Z" fill="#252525"/>
<path d="M26.5237 21.7708H28.4186V23.6653H26.5237V21.7708Z" fill="#252525"/>
<path d="M34.1023 21.7708H35.9969V23.6653H34.1023V21.7708Z" fill="#252525"/>
<path d="M9.4729 23.6653H11.3675V25.5598H9.4729V23.6653Z" fill="#252525"/>
<path d="M11.3674 23.6653H13.262V25.5598H11.3674V23.6653Z" fill="#252525"/>
<path d="M13.262 23.6653H15.1565V25.5598H13.262V23.6653Z" fill="#252525"/>
<path d="M15.1565 23.6653H17.0511V25.5598H15.1565V23.6653Z" fill="#252525"/>
<path d="M17.051 23.6653H18.9456V25.5598H17.051V23.6653Z" fill="#252525"/>
<path d="M18.9456 23.6653H20.8401V25.5598H18.9456V23.6653Z" fill="#252525"/>
<path d="M20.8401 23.6653H22.7346V25.5598H20.8401V23.6653Z" fill="#252525"/>
<path d="M24.6292 23.6653H26.5237V25.5598H24.6292V23.6653Z" fill="#252525"/>
<path d="M28.4185 23.6653H30.3134V25.5598H28.4185V23.6653Z" fill="#252525"/>
<path d="M34.1023 23.6653H35.9969V25.5598H34.1023V23.6653Z" fill="#252525"/>
<path d="M5.68359 25.5603H7.57815V27.4545H5.68359V25.5603Z" fill="#252525"/>
<path d="M7.57812 25.5603H9.47268V27.4545H7.57812V25.5603Z" fill="#252525"/>
<path d="M9.4729 25.5603H11.3675V27.4545H9.4729V25.5603Z" fill="#252525"/>
<path d="M11.3674 25.5603H13.262V27.4545H11.3674V25.5603Z" fill="#252525"/>
<path d="M13.262 25.5603H15.1565V27.4545H13.262V25.5603Z" fill="#252525"/>
<path d="M15.1565 25.5603H17.0511V27.4545H15.1565V25.5603Z" fill="#252525"/>
<path d="M17.051 25.5603H18.9456V27.4545H17.051V25.5603Z" fill="#252525"/>
<path d="M18.9456 25.5603H20.8401V27.4545H18.9456V25.5603Z" fill="#252525"/>
<path d="M22.7346 25.5603H24.6292V27.4545H22.7346V25.5603Z" fill="#252525"/>
<path d="M30.3132 25.5603H32.2078V27.4545H30.3132V25.5603Z" fill="#252525"/>
<path d="M34.1023 25.5603H35.9969V27.4545H34.1023V25.5603Z" fill="#252525"/>
<path d="M5.68359 27.4548H7.57815V29.3494H5.68359V27.4548Z" fill="#252525"/>
<path d="M7.57812 27.4548H9.47268V29.3494H7.57812V27.4548Z" fill="#252525"/>
<path d="M9.4729 27.4548H11.3675V29.3494H9.4729V27.4548Z" fill="#252525"/>
<path d="M11.3674 27.4548H13.262V29.3494H11.3674V27.4548Z" fill="#252525"/>
<path d="M13.262 27.4548H15.1565V29.3494H13.262V27.4548Z" fill="#252525"/>
<path d="M15.1565 27.4548H17.0511V29.3494H15.1565V27.4548Z" fill="#252525"/>
<path d="M17.051 27.4548H18.9456V29.3494H17.051V27.4548Z" fill="#252525"/>
<path d="M20.8401 27.4548H22.7346V29.3494H20.8401V27.4548Z" fill="#252525"/>
<path d="M32.2078 27.4548H34.1023V29.3494H32.2078V27.4548Z" fill="#252525"/>
<path d="M34.1023 27.4548H35.9969V29.3494H34.1023V27.4548Z" fill="#252525"/>
<path d="M3.78906 29.3494H5.68362V31.2439H3.78906V29.3494Z" fill="#252525"/>
<path d="M5.68359 29.3494H7.57815V31.2439H5.68359V29.3494Z" fill="#252525"/>
<path d="M7.57812 29.3494H9.47268V31.2439H7.57812V29.3494Z" fill="#252525"/>
<path d="M9.4729 29.3494H11.3675V31.2439H9.4729V29.3494Z" fill="#252525"/>
<path d="M11.3674 29.3494H13.262V31.2439H11.3674V29.3494Z" fill="#252525"/>
<path d="M13.262 29.3494H15.1565V31.2439H13.262V29.3494Z" fill="#252525"/>
<path d="M15.1565 29.3494H17.0511V31.2439H15.1565V29.3494Z" fill="#252525"/>
<path d="M18.9456 29.3494H20.8401V31.2439H18.9456V29.3494Z" fill="#252525"/>
<path d="M34.1023 29.3494H35.9969V31.2439H34.1023V29.3494Z" fill="#252525"/>
<path d="M3.78906 31.2439H5.68362V33.1385H3.78906V31.2439Z" fill="#252525"/>
<path d="M5.68359 31.2439H7.57815V33.1385H5.68359V31.2439Z" fill="#252525"/>
<path d="M7.57812 31.2439H9.47268V33.1385H7.57812V31.2439Z" fill="#252525"/>
<path d="M9.4729 31.2439H11.3675V33.1385H9.4729V31.2439Z" fill="#252525"/>
<path d="M11.3674 31.2439H13.262V33.1385H11.3674V31.2439Z" fill="#252525"/>
<path d="M13.262 31.2439H15.1565V33.1385H13.262V31.2439Z" fill="#252525"/>
<path d="M17.051 31.2439H18.9456V33.1385H17.051V31.2439Z" fill="#252525"/>
<path d="M18.9456 31.2439H20.8401V33.1385H18.9456V31.2439Z" fill="#252525"/>
<path d="M3.78906 33.1381L5.68362 33.1384V35.033H3.78906V33.1381Z" fill="#252525"/>
<path d="M5.68359 33.1381L7.57815 33.1384V35.033H5.68359V33.1381Z" fill="#252525"/>
<path d="M7.57812 33.1381L9.47268 33.1384V35.033H7.57812V33.1381Z" fill="#252525"/>
<path d="M9.4729 33.1381L11.3675 33.1384V35.033H9.4729V33.1381Z" fill="#252525"/>
<path d="M11.3674 33.1381L13.262 33.1384V35.033H11.3674V33.1381Z" fill="#252525"/>
<path d="M13.262 33.1381L15.1565 33.1384V35.033H13.262V33.1381Z" fill="#252525"/>
<path d="M15.1565 33.1381L17.0511 33.1384V35.033H15.1565V33.1381Z" fill="#252525"/>
<path d="M17.051 33.1381L18.9456 33.1384V35.033H17.051V33.1381Z" fill="#252525"/>
<path d="M18.9456 33.1381L20.8401 33.1384V35.033H18.9456V33.1381Z" fill="#252525"/>
<path d="M13.262 4.71973H15.1565V6.61428H13.262V4.71973Z" fill="white"/>
<path d="M15.1565 4.71973H17.0511V6.61428H15.1565V4.71973Z" fill="white"/>
<path d="M17.051 4.71973H18.9456V6.61428H17.051V4.71973Z" fill="white"/>
<path d="M9.4729 6.61438H11.3675V8.50894H9.4729V6.61438Z" fill="white"/>
<path d="M11.3674 6.61438H13.262V8.50894H11.3674V6.61438Z" fill="white"/>
<path d="M13.262 6.61438H15.1565V8.50894H13.262V6.61438Z" fill="white"/>
<path d="M15.1565 6.61438H17.0511V8.50894H15.1565V6.61438Z" fill="white"/>
<path d="M17.051 6.61438H18.9456V8.50894H17.051V6.61438Z" fill="white"/>
<path d="M18.9456 6.61438H20.8401V8.50894H18.9456V6.61438Z" fill="white"/>
<path d="M20.8401 6.61438H22.7346V8.50894H20.8401V6.61438Z" fill="white"/>
<path d="M7.57812 8.50891H9.47268V10.4035H7.57812V8.50891Z" fill="white"/>
<path d="M9.4729 8.50891H11.3675V10.4035H9.4729V8.50891Z" fill="white"/>
<path d="M11.3674 8.50891H13.262V10.4035H11.3674V8.50891Z" fill="white"/>
<path d="M13.262 8.50891H15.1565V10.4035H13.262V8.50891Z" fill="white"/>
<path d="M15.1565 8.50891H17.0511V10.4035H15.1565V8.50891Z" fill="white"/>
<path d="M17.051 8.50891H18.9456V10.4035H17.051V8.50891Z" fill="white"/>
<path d="M18.9456 8.50891H20.8401V10.4035H18.9456V8.50891Z" fill="white"/>
<path d="M20.8401 8.50891H22.7346V10.4035H20.8401V8.50891Z" fill="white"/>
<path d="M22.7346 8.50891H24.6292V10.4035H22.7346V8.50891Z" fill="white"/>
<path d="M7.57812 10.4034H9.47268V12.298H7.57812V10.4034Z" fill="white"/>
<path d="M9.4729 10.4034H11.3675V12.298H9.4729V10.4034Z" fill="white"/>
<path d="M15.1565 10.4034H17.0511V12.298H15.1565V10.4034Z" fill="white"/>
<path d="M17.051 10.4034H18.9456V12.298H17.051V10.4034Z" fill="white"/>
<path d="M22.7346 10.4034H24.6292V12.298H22.7346V10.4034Z" fill="white"/>
<path d="M7.57812 12.298H9.47268V14.1925H7.57812V12.298Z" fill="white"/>
<path d="M9.4729 12.298H11.3675V14.1925H9.4729V12.298Z" fill="white"/>
<path d="M15.1565 12.298H17.0511V14.1925H15.1565V12.298Z" fill="white"/>
<path d="M17.051 12.298H18.9456V14.1925H17.051V12.298Z" fill="white"/>
<path d="M22.7346 12.298H24.6292V14.1925H22.7346V12.298Z" fill="white"/>
<path d="M7.57812 14.1925H9.47268V16.0871H7.57812V14.1925Z" fill="white"/>
<path d="M9.4729 14.1925H11.3675V16.0871H9.4729V14.1925Z" fill="white"/>
<path d="M11.3674 14.1925H13.262V16.0871H11.3674V14.1925Z" fill="white"/>
<path d="M13.262 14.1925H15.1565V16.0871H13.262V14.1925Z" fill="white"/>
<path d="M15.1565 14.1925H17.0511V16.0871H15.1565V14.1925Z" fill="white"/>
<path d="M17.051 14.1925H18.9456V16.0871H17.051V14.1925Z" fill="white"/>
<path d="M18.9456 14.1925H20.8401V16.0871H18.9456V14.1925Z" fill="white"/>
<path d="M20.8401 14.1925H22.7346V16.0871H20.8401V14.1925Z" fill="white"/>
<path d="M22.7346 14.1925H24.6292V16.0871H22.7346V14.1925Z" fill="white"/>
<path d="M13.262 16.0872H15.1565V17.9821H13.262V16.0872Z" fill="white"/>
<path d="M15.1565 16.0872H17.0511V17.9821H15.1565V16.0872Z" fill="white"/>
<path d="M17.051 16.0872H18.9456V17.9821H17.051V16.0872Z" fill="white"/>
<path d="M18.9456 16.0872H20.8401V17.9821H18.9456V16.0872Z" fill="white"/>
<path d="M13.262 17.9817H15.1565V19.8762H13.262V17.9817Z" fill="white"/>
<path d="M15.1565 17.9817H17.0511V19.8762H15.1565V17.9817Z" fill="white"/>
<path d="M17.051 17.9817H18.9456V19.8762H17.051V17.9817Z" fill="white"/>
<path d="M18.9456 17.9817H20.8401V19.8762H18.9456V17.9817Z" fill="white"/>
<path d="M28.4185 19.8762H30.3134V21.7708H28.4185V19.8762Z" fill="#44F1A6"/>
<path d="M30.3132 19.8762H32.2078V21.7708H30.3132V19.8762Z" fill="#44F1A6"/>
<path d="M28.4185 21.7708H30.3134V23.6653H28.4185V21.7708Z" fill="#44F1A6"/>
<path d="M30.3132 21.7708H32.2078V23.6653H30.3132V21.7708Z" fill="#44F1A6"/>
<path d="M32.2078 21.7708H34.1023V23.6653H32.2078V21.7708Z" fill="#44F1A6"/>
<path d="M30.3132 23.6653H32.2078V25.5598H30.3132V23.6653Z" fill="#44F1A6"/>
<path d="M32.2078 23.6653H34.1023V25.5598H32.2078V23.6653Z" fill="#44F1A6"/>
<path d="M32.2078 25.5603H34.1023V27.4545H32.2078V25.5603Z" fill="#44F1A6"/>
<path d="M28.4185 17.9817H30.3134V19.8762H28.4185V17.9817Z" fill="#44F1A6"/>
<path d="M26.5237 19.8762H28.4186V21.7708H26.5237V19.8762Z" fill="#44F1A6"/>
<path d="M24.6292 21.7708H26.5237V23.6653H24.6292V21.7708Z" fill="#44F1A6"/>
<path d="M22.7346 23.6653H24.6292V25.5598H22.7346V23.6653Z" fill="#44F1A6"/>
<path d="M20.8401 25.5603H22.7346V27.4545H20.8401V25.5603Z" fill="#44F1A6"/>
<path d="M18.9456 27.4548H20.8401V29.3494H18.9456V27.4548Z" fill="#44F1A6"/>
<path d="M17.051 29.3494H18.9456V31.2439H17.051V29.3494Z" fill="#44F1A6"/>
<path d="M15.1565 31.2439H17.0511V33.1385H15.1565V31.2439Z" fill="#44F1A6"/>
<path d="M13.262 19.8762H15.1565V21.7708H13.262V19.8762Z" fill="#252525"/>
<path d="M15.1565 19.8762H17.0511V21.7708H15.1565V19.8762Z" fill="#252525"/>
<path d="M17.051 19.8762H18.9456V21.7708H17.051V19.8762Z" fill="#252525"/>
<path d="M7.57812 21.7708H9.47268V23.6653H7.57812V21.7708Z" fill="#252525"/>
<path d="M7.57812 23.6653H9.47268V25.5598H7.57812V23.6653Z" fill="#252525"/>
<path d="M9.4729 0.93042L11.3675 0.930457V2.82505H9.4729V0.93042Z" fill="#252525"/>
<path d="M11.3674 0.93042L13.262 0.930457V2.82505H11.3674V0.93042Z" fill="#252525"/>
<path d="M13.262 0.93042L15.1565 0.930457V2.82505H13.262V0.93042Z" fill="#252525"/>
<path d="M15.1565 0.93042L17.0511 0.930457V2.82505H15.1565V0.93042Z" fill="#252525"/>
<path d="M3.78906 2.82495L5.68362 2.82499V4.71974H3.78906V2.82495Z" fill="#252525"/>
<path d="M5.68359 2.82495L7.57815 2.82499V4.71974H5.68359V2.82495Z" fill="#252525"/>
<path d="M7.57812 2.82495L9.47268 2.82499V4.71974H7.57812V2.82495Z" fill="#252525"/>
<path d="M9.4729 2.82495L11.3675 2.82499V4.71974H9.4729V2.82495Z" fill="#252525"/>
<path d="M11.3674 2.82495L13.262 2.82499V4.71974H11.3674V2.82495Z" fill="#252525"/>
<path d="M13.262 2.82495L15.1565 2.82499V4.71974H13.262V2.82495Z" fill="#252525"/>
<path d="M15.1565 2.82495L17.0511 2.82499V4.71974H15.1565V2.82495Z" fill="#252525"/>
<path d="M17.051 2.82495L18.9456 2.82499V4.71974H17.051V2.82495Z" fill="#252525"/>
<path d="M0 4.71973H1.89456V6.61428H0V4.71973Z" fill="#252525"/>
<path d="M1.89453 4.71973H3.78909V6.61428H1.89453V4.71973Z" fill="#252525"/>
<path d="M3.78906 4.71973H5.68362V6.61428H3.78906V4.71973Z" fill="#252525"/>
<path d="M5.68359 4.71973H7.57815V6.61428H5.68359V4.71973Z" fill="#252525"/>
<path d="M7.57812 4.71973H9.47268V6.61428H7.57812V4.71973Z" fill="#252525"/>
<path d="M9.4729 4.71973H11.3675V6.61428H9.4729V4.71973Z" fill="#252525"/>
<path d="M11.3674 4.71973H13.262V6.61428H11.3674V4.71973Z" fill="#252525"/>
<path d="M18.9456 4.71973H20.8401V6.61428H18.9456V4.71973Z" fill="#252525"/>
<path d="M20.8401 4.71973H22.7346V6.61428H20.8401V4.71973Z" fill="#252525"/>
<path d="M0 6.61438H1.89456V8.50894H0V6.61438Z" fill="#252525"/>
<path d="M1.89453 6.61438H3.78909V8.50894H1.89453V6.61438Z" fill="#252525"/>
<path d="M3.78906 6.61438H5.68362V8.50894H3.78906V6.61438Z" fill="#252525"/>
<path d="M5.68359 6.61438H7.57815V8.50894H5.68359V6.61438Z" fill="#252525"/>
<path d="M7.57812 6.61438H9.47268V8.50894H7.57812V6.61438Z" fill="#252525"/>
<path d="M22.7346 6.61438H24.6292V8.50894H22.7346V6.61438Z" fill="#252525"/>
<path d="M0 8.50891H1.89456V10.4035H0V8.50891Z" fill="#252525"/>
<path d="M1.89453 8.50891H3.78909V10.4035H1.89453V8.50891Z" fill="#252525"/>
<path d="M3.78906 8.50891H5.68362V10.4035H3.78906V8.50891Z" fill="#252525"/>
<path d="M5.68359 8.50891H7.57815V10.4035H5.68359V8.50891Z" fill="#252525"/>
<path d="M24.6292 8.50891H26.5237V10.4035H24.6292V8.50891Z" fill="#252525"/>
<path d="M0 10.4034H1.89456V12.298H0V10.4034Z" fill="#252525"/>
<path d="M1.89453 10.4034H3.78909V12.298H1.89453V10.4034Z" fill="#252525"/>
<path d="M3.78906 10.4034H5.68362V12.298H3.78906V10.4034Z" fill="#252525"/>
<path d="M5.68359 10.4034H7.57815V12.298H5.68359V10.4034Z" fill="#252525"/>
<path d="M11.3674 10.4034H13.262V12.298H11.3674V10.4034Z" fill="#252525"/>
<path d="M13.262 10.4034H15.1565V12.298H13.262V10.4034Z" fill="#252525"/>
<path d="M18.946 10.4034H20.8402V12.298H18.946V10.4034Z" fill="#252525"/>
<path d="M20.8401 10.4034H22.7346V12.298H20.8401V10.4034Z" fill="#252525"/>
<path d="M24.6292 10.4034H26.5237V12.298H24.6292V10.4034Z" fill="#252525"/>
<path d="M0 12.298H1.89456V14.1925H0V12.298Z" fill="#252525"/>
<path d="M1.89453 12.298H3.78909V14.1925H1.89453V12.298Z" fill="#252525"/>
<path d="M3.78906 12.298H5.68362V14.1925H3.78906V12.298Z" fill="#252525"/>
<path d="M5.68359 12.298H7.57815V14.1925H5.68359V12.298Z" fill="#252525"/>
<path d="M11.3674 12.298H13.262V14.1925H11.3674V12.298Z" fill="#252525"/>
<path d="M13.262 12.298H15.1565V14.1925H13.262V12.298Z" fill="#252525"/>
<path d="M18.9456 12.298H20.8401V14.1925H18.9456V12.298Z" fill="#252525"/>
<path d="M20.8401 12.298H22.7346V14.1925H20.8401V12.298Z" fill="#252525"/>
<path d="M24.6292 12.298H26.5237V14.1925H24.6292V12.298Z" fill="#252525"/>
<path d="M0 14.1925H1.89456V16.0871H0V14.1925Z" fill="#252525"/>
<path d="M1.89453 14.1925H3.78909V16.0871H1.89453V14.1925Z" fill="#252525"/>
<path d="M3.78906 14.1925H5.68362V16.0871H3.78906V14.1925Z" fill="#252525"/>
<path d="M5.68359 14.1925H7.57815V16.0871H5.68359V14.1925Z" fill="#252525"/>
<path d="M24.6292 14.1925H26.5237V16.0871H24.6292V14.1925Z" fill="#252525"/>
<path d="M1.89453 16.0872H3.78909V17.9821H1.89453V16.0872Z" fill="#252525"/>
<path d="M3.78906 16.0872H5.68362V17.9821H3.78906V16.0872Z" fill="#252525"/>
<path d="M5.68359 16.0872H7.57815V17.9821H5.68359V16.0872Z" fill="#252525"/>
<path d="M7.57812 16.0872H9.47268V17.9821H7.57812V16.0872Z" fill="#252525"/>
<path d="M9.4729 16.0872H11.3675V17.9821H9.4729V16.0872Z" fill="#252525"/>
<path d="M11.3674 16.0872H13.262V17.9821H11.3674V16.0872Z" fill="#252525"/>
<path d="M20.8401 16.0872H22.7346V17.9821H20.8401V16.0872Z" fill="#252525"/>
<path d="M22.7346 16.0872H24.6292V17.9821H22.7346V16.0872Z" fill="#252525"/>
<path d="M28.4185 16.0872H30.3134V17.9821H28.4185V16.0872Z" fill="#252525"/>
<path d="M30.3132 16.0872H32.2078V17.9821H30.3132V16.0872Z" fill="#252525"/>
<path d="M3.78906 17.9817H5.68362V19.8762H3.78906V17.9817Z" fill="#252525"/>
<path d="M5.68359 17.9817H7.57815V19.8762H5.68359V17.9817Z" fill="#252525"/>
<path d="M7.57812 17.9817H9.47268V19.8762H7.57812V17.9817Z" fill="#252525"/>
<path d="M9.4729 17.9817H11.3675V19.8762H9.4729V17.9817Z" fill="#252525"/>
<path d="M11.3674 17.9817H13.262V19.8762H11.3674V17.9817Z" fill="#252525"/>
<path d="M20.8401 17.9817H22.7346V19.8762H20.8401V17.9817Z" fill="#252525"/>
<path d="M26.5237 17.9817H28.4186V19.8762H26.5237V17.9817Z" fill="#252525"/>
<path d="M30.3132 17.9817H32.2078V19.8762H30.3132V17.9817Z" fill="#252525"/>
<path d="M5.68359 19.8762H7.57815V21.7708H5.68359V19.8762Z" fill="#252525"/>
<path d="M7.57812 19.8762H9.47268V21.7708H7.57812V19.8762Z" fill="#252525"/>
<path d="M9.4729 19.8762H11.3675V21.7708H9.4729V19.8762Z" fill="#252525"/>
<path d="M11.3674 19.8762H13.262V21.7708H11.3674V19.8762Z" fill="#252525"/>
<path d="M18.9456 19.8762H20.8401V21.7708H18.9456V19.8762Z" fill="#252525"/>
<path d="M24.6292 19.8762H26.5237V21.7708H24.6292V19.8762Z" fill="#252525"/>
<path d="M32.2078 19.8762H34.1023V21.7708H32.2078V19.8762Z" fill="#252525"/>
<path d="M9.4729 21.7708H11.3675V23.6653H9.4729V21.7708Z" fill="#252525"/>
<path d="M11.3674 21.7708H13.262V23.6653H11.3674V21.7708Z" fill="#252525"/>
<path d="M13.262 21.7708H15.1565V23.6653H13.262V21.7708Z" fill="#252525"/>
<path d="M15.1565 21.7708H17.0511V23.6653H15.1565V21.7708Z" fill="#252525"/>
<path d="M17.051 21.7708H18.9456V23.6653H17.051V21.7708Z" fill="#252525"/>
<path d="M18.9456 21.7708H20.8401V23.6653H18.9456V21.7708Z" fill="#252525"/>
<path d="M22.7346 21.7708H24.6292V23.6653H22.7346V21.7708Z" fill="#252525"/>
<path d="M26.5237 21.7708H28.4186V23.6653H26.5237V21.7708Z" fill="#252525"/>
<path d="M34.1023 21.7708H35.9969V23.6653H34.1023V21.7708Z" fill="#252525"/>
<path d="M9.4729 23.6653H11.3675V25.5598H9.4729V23.6653Z" fill="#252525"/>
<path d="M11.3674 23.6653H13.262V25.5598H11.3674V23.6653Z" fill="#252525"/>
<path d="M13.262 23.6653H15.1565V25.5598H13.262V23.6653Z" fill="#252525"/>
<path d="M15.1565 23.6653H17.0511V25.5598H15.1565V23.6653Z" fill="#252525"/>
<path d="M17.051 23.6653H18.9456V25.5598H17.051V23.6653Z" fill="#252525"/>
<path d="M18.9456 23.6653H20.8401V25.5598H18.9456V23.6653Z" fill="#252525"/>
<path d="M20.8401 23.6653H22.7346V25.5598H20.8401V23.6653Z" fill="#252525"/>
<path d="M24.6292 23.6653H26.5237V25.5598H24.6292V23.6653Z" fill="#252525"/>
<path d="M28.4185 23.6653H30.3134V25.5598H28.4185V23.6653Z" fill="#252525"/>
<path d="M34.1023 23.6653H35.9969V25.5598H34.1023V23.6653Z" fill="#252525"/>
<path d="M5.68359 25.5603H7.57815V27.4545H5.68359V25.5603Z" fill="#252525"/>
<path d="M7.57812 25.5603H9.47268V27.4545H7.57812V25.5603Z" fill="#252525"/>
<path d="M9.4729 25.5603H11.3675V27.4545H9.4729V25.5603Z" fill="#252525"/>
<path d="M11.3674 25.5603H13.262V27.4545H11.3674V25.5603Z" fill="#252525"/>
<path d="M13.262 25.5603H15.1565V27.4545H13.262V25.5603Z" fill="#252525"/>
<path d="M15.1565 25.5603H17.0511V27.4545H15.1565V25.5603Z" fill="#252525"/>
<path d="M17.051 25.5603H18.9456V27.4545H17.051V25.5603Z" fill="#252525"/>
<path d="M18.9456 25.5603H20.8401V27.4545H18.9456V25.5603Z" fill="#252525"/>
<path d="M22.7346 25.5603H24.6292V27.4545H22.7346V25.5603Z" fill="#252525"/>
<path d="M30.3132 25.5603H32.2078V27.4545H30.3132V25.5603Z" fill="#252525"/>
<path d="M34.1023 25.5603H35.9969V27.4545H34.1023V25.5603Z" fill="#252525"/>
<path d="M5.68359 27.4548H7.57815V29.3494H5.68359V27.4548Z" fill="#252525"/>
<path d="M7.57812 27.4548H9.47268V29.3494H7.57812V27.4548Z" fill="#252525"/>
<path d="M9.4729 27.4548H11.3675V29.3494H9.4729V27.4548Z" fill="#252525"/>
<path d="M11.3674 27.4548H13.262V29.3494H11.3674V27.4548Z" fill="#252525"/>
<path d="M13.262 27.4548H15.1565V29.3494H13.262V27.4548Z" fill="#252525"/>
<path d="M15.1565 27.4548H17.0511V29.3494H15.1565V27.4548Z" fill="#252525"/>
<path d="M17.051 27.4548H18.9456V29.3494H17.051V27.4548Z" fill="#252525"/>
<path d="M20.8401 27.4548H22.7346V29.3494H20.8401V27.4548Z" fill="#252525"/>
<path d="M32.2078 27.4548H34.1023V29.3494H32.2078V27.4548Z" fill="#252525"/>
<path d="M34.1023 27.4548H35.9969V29.3494H34.1023V27.4548Z" fill="#252525"/>
<path d="M3.78906 29.3494H5.68362V31.2439H3.78906V29.3494Z" fill="#252525"/>
<path d="M5.68359 29.3494H7.57815V31.2439H5.68359V29.3494Z" fill="#252525"/>
<path d="M7.57812 29.3494H9.47268V31.2439H7.57812V29.3494Z" fill="#252525"/>
<path d="M9.4729 29.3494H11.3675V31.2439H9.4729V29.3494Z" fill="#252525"/>
<path d="M11.3674 29.3494H13.262V31.2439H11.3674V29.3494Z" fill="#252525"/>
<path d="M13.262 29.3494H15.1565V31.2439H13.262V29.3494Z" fill="#252525"/>
<path d="M15.1565 29.3494H17.0511V31.2439H15.1565V29.3494Z" fill="#252525"/>
<path d="M18.9456 29.3494H20.8401V31.2439H18.9456V29.3494Z" fill="#252525"/>
<path d="M34.1023 29.3494H35.9969V31.2439H34.1023V29.3494Z" fill="#252525"/>
<path d="M3.78906 31.2439H5.68362V33.1385H3.78906V31.2439Z" fill="#252525"/>
<path d="M5.68359 31.2439H7.57815V33.1385H5.68359V31.2439Z" fill="#252525"/>
<path d="M7.57812 31.2439H9.47268V33.1385H7.57812V31.2439Z" fill="#252525"/>
<path d="M9.4729 31.2439H11.3675V33.1385H9.4729V31.2439Z" fill="#252525"/>
<path d="M11.3674 31.2439H13.262V33.1385H11.3674V31.2439Z" fill="#252525"/>
<path d="M13.262 31.2439H15.1565V33.1385H13.262V31.2439Z" fill="#252525"/>
<path d="M17.051 31.2439H18.9456V33.1385H17.051V31.2439Z" fill="#252525"/>
<path d="M18.9456 31.2439H20.8401V33.1385H18.9456V31.2439Z" fill="#252525"/>
<path d="M3.78906 33.1381L5.68362 33.1384V35.033H3.78906V33.1381Z" fill="#252525"/>
<path d="M5.68359 33.1381L7.57815 33.1384V35.033H5.68359V33.1381Z" fill="#252525"/>
<path d="M7.57812 33.1381L9.47268 33.1384V35.033H7.57812V33.1381Z" fill="#252525"/>
<path d="M9.4729 33.1381L11.3675 33.1384V35.033H9.4729V33.1381Z" fill="#252525"/>
<path d="M11.3674 33.1381L13.262 33.1384V35.033H11.3674V33.1381Z" fill="#252525"/>
<path d="M13.262 33.1381L15.1565 33.1384V35.033H13.262V33.1381Z" fill="#252525"/>
<path d="M15.1565 33.1381L17.0511 33.1384V35.033H15.1565V33.1381Z" fill="#252525"/>
<path d="M17.051 33.1381L18.9456 33.1384V35.033H17.051V33.1381Z" fill="#252525"/>
<path d="M18.9456 33.1381L20.8401 33.1384V35.033H18.9456V33.1381Z" fill="#252525"/>
<path d="M13.262 4.71973H15.1565V6.61428H13.262V4.71973Z" fill="white"/>
<path d="M15.1565 4.71973H17.0511V6.61428H15.1565V4.71973Z" fill="white"/>
<path d="M17.051 4.71973H18.9456V6.61428H17.051V4.71973Z" fill="white"/>
<path d="M9.4729 6.61438H11.3675V8.50894H9.4729V6.61438Z" fill="white"/>
<path d="M11.3674 6.61438H13.262V8.50894H11.3674V6.61438Z" fill="white"/>
<path d="M13.262 6.61438H15.1565V8.50894H13.262V6.61438Z" fill="white"/>
<path d="M15.1565 6.61438H17.0511V8.50894H15.1565V6.61438Z" fill="white"/>
<path d="M17.051 6.61438H18.9456V8.50894H17.051V6.61438Z" fill="white"/>
<path d="M18.9456 6.61438H20.8401V8.50894H18.9456V6.61438Z" fill="white"/>
<path d="M20.8401 6.61438H22.7346V8.50894H20.8401V6.61438Z" fill="white"/>
<path d="M7.57812 8.50891H9.47268V10.4035H7.57812V8.50891Z" fill="white"/>
<path d="M9.4729 8.50891H11.3675V10.4035H9.4729V8.50891Z" fill="white"/>
<path d="M11.3674 8.50891H13.262V10.4035H11.3674V8.50891Z" fill="white"/>
<path d="M13.262 8.50891H15.1565V10.4035H13.262V8.50891Z" fill="white"/>
<path d="M15.1565 8.50891H17.0511V10.4035H15.1565V8.50891Z" fill="white"/>
<path d="M17.051 8.50891H18.9456V10.4035H17.051V8.50891Z" fill="white"/>
<path d="M18.9456 8.50891H20.8401V10.4035H18.9456V8.50891Z" fill="white"/>
<path d="M20.8401 8.50891H22.7346V10.4035H20.8401V8.50891Z" fill="white"/>
<path d="M22.7346 8.50891H24.6292V10.4035H22.7346V8.50891Z" fill="white"/>
<path d="M7.57812 10.4034H9.47268V12.298H7.57812V10.4034Z" fill="white"/>
<path d="M9.4729 10.4034H11.3675V12.298H9.4729V10.4034Z" fill="white"/>
<path d="M15.1565 10.4034H17.0511V12.298H15.1565V10.4034Z" fill="white"/>
<path d="M17.051 10.4034H18.9456V12.298H17.051V10.4034Z" fill="white"/>
<path d="M22.7346 10.4034H24.6292V12.298H22.7346V10.4034Z" fill="white"/>
<path d="M7.57812 12.298H9.47268V14.1925H7.57812V12.298Z" fill="white"/>
<path d="M9.4729 12.298H11.3675V14.1925H9.4729V12.298Z" fill="white"/>
<path d="M15.1565 12.298H17.0511V14.1925H15.1565V12.298Z" fill="white"/>
<path d="M17.051 12.298H18.9456V14.1925H17.051V12.298Z" fill="white"/>
<path d="M22.7346 12.298H24.6292V14.1925H22.7346V12.298Z" fill="white"/>
<path d="M7.57812 14.1925H9.47268V16.0871H7.57812V14.1925Z" fill="white"/>
<path d="M9.4729 14.1925H11.3675V16.0871H9.4729V14.1925Z" fill="white"/>
<path d="M11.3674 14.1925H13.262V16.0871H11.3674V14.1925Z" fill="white"/>
<path d="M13.262 14.1925H15.1565V16.0871H13.262V14.1925Z" fill="white"/>
<path d="M15.1565 14.1925H17.0511V16.0871H15.1565V14.1925Z" fill="white"/>
<path d="M17.051 14.1925H18.9456V16.0871H17.051V14.1925Z" fill="white"/>
<path d="M18.9456 14.1925H20.8401V16.0871H18.9456V14.1925Z" fill="white"/>
<path d="M20.8401 14.1925H22.7346V16.0871H20.8401V14.1925Z" fill="white"/>
<path d="M22.7346 14.1925H24.6292V16.0871H22.7346V14.1925Z" fill="white"/>
<path d="M13.262 16.0872H15.1565V17.9821H13.262V16.0872Z" fill="white"/>
<path d="M15.1565 16.0872H17.0511V17.9821H15.1565V16.0872Z" fill="white"/>
<path d="M17.051 16.0872H18.9456V17.9821H17.051V16.0872Z" fill="white"/>
<path d="M18.9456 16.0872H20.8401V17.9821H18.9456V16.0872Z" fill="white"/>
<path d="M13.262 17.9817H15.1565V19.8762H13.262V17.9817Z" fill="white"/>
<path d="M15.1565 17.9817H17.0511V19.8762H15.1565V17.9817Z" fill="white"/>
<path d="M17.051 17.9817H18.9456V19.8762H17.051V17.9817Z" fill="white"/>
<path d="M18.9456 17.9817H20.8401V19.8762H18.9456V17.9817Z" fill="white"/>
<path d="M28.4185 19.8762H30.3134V21.7708H28.4185V19.8762Z" fill="#44F1A6"/>
<path d="M30.3132 19.8762H32.2078V21.7708H30.3132V19.8762Z" fill="#44F1A6"/>
<path d="M28.4185 21.7708H30.3134V23.6653H28.4185V21.7708Z" fill="#44F1A6"/>
<path d="M30.3132 21.7708H32.2078V23.6653H30.3132V21.7708Z" fill="#44F1A6"/>
<path d="M32.2078 21.7708H34.1023V23.6653H32.2078V21.7708Z" fill="#44F1A6"/>
<path d="M30.3132 23.6653H32.2078V25.5598H30.3132V23.6653Z" fill="#44F1A6"/>
<path d="M32.2078 23.6653H34.1023V25.5598H32.2078V23.6653Z" fill="#44F1A6"/>
<path d="M32.2078 25.5603H34.1023V27.4545H32.2078V25.5603Z" fill="#44F1A6"/>
<path d="M28.4185 17.9817H30.3134V19.8762H28.4185V17.9817Z" fill="#44F1A6"/>
<path d="M26.5237 19.8762H28.4186V21.7708H26.5237V19.8762Z" fill="#44F1A6"/>
<path d="M24.6292 21.7708H26.5237V23.6653H24.6292V21.7708Z" fill="#44F1A6"/>
<path d="M22.7346 23.6653H24.6292V25.5598H22.7346V23.6653Z" fill="#44F1A6"/>
<path d="M20.8401 25.5603H22.7346V27.4545H20.8401V25.5603Z" fill="#44F1A6"/>
<path d="M18.9456 27.4548H20.8401V29.3494H18.9456V27.4548Z" fill="#44F1A6"/>
<path d="M17.051 29.3494H18.9456V31.2439H17.051V29.3494Z" fill="#44F1A6"/>
<path d="M15.1565 31.2439H17.0511V33.1385H15.1565V31.2439Z" fill="#44F1A6"/>
<path d="M13.262 19.8762H15.1565V21.7708H13.262V19.8762Z" fill="#252525"/>
<path d="M15.1565 19.8762H17.0511V21.7708H15.1565V19.8762Z" fill="#252525"/>
<path d="M17.051 19.8762H18.9456V21.7708H17.051V19.8762Z" fill="#252525"/>
<path d="M7.57812 21.7708H9.47268V23.6653H7.57812V21.7708Z" fill="#252525"/>
<path d="M7.57812 23.6653H9.47268V25.5598H7.57812V23.6653Z" fill="#252525"/>
<path d="M9.4729 0.93042L11.3675 0.930457V2.82505H9.4729V0.93042Z" fill="#252525"/>
<path d="M11.3674 0.93042L13.262 0.930457V2.82505H11.3674V0.93042Z" fill="#252525"/>
<path d="M13.262 0.93042L15.1565 0.930457V2.82505H13.262V0.93042Z" fill="#252525"/>
<path d="M15.1565 0.93042L17.0511 0.930457V2.82505H15.1565V0.93042Z" fill="#252525"/>
<path d="M3.78906 2.82495L5.68362 2.82499V4.71974H3.78906V2.82495Z" fill="#252525"/>
<path d="M5.68359 2.82495L7.57815 2.82499V4.71974H5.68359V2.82495Z" fill="#252525"/>
<path d="M7.57812 2.82495L9.47268 2.82499V4.71974H7.57812V2.82495Z" fill="#252525"/>
<path d="M9.4729 2.82495L11.3675 2.82499V4.71974H9.4729V2.82495Z" fill="#252525"/>
<path d="M11.3674 2.82495L13.262 2.82499V4.71974H11.3674V2.82495Z" fill="#252525"/>
<path d="M13.262 2.82495L15.1565 2.82499V4.71974H13.262V2.82495Z" fill="#252525"/>
<path d="M15.1565 2.82495L17.0511 2.82499V4.71974H15.1565V2.82495Z" fill="#252525"/>
<path d="M17.051 2.82495L18.9456 2.82499V4.71974H17.051V2.82495Z" fill="#252525"/>
<path d="M0 4.71973H1.89456V6.61428H0V4.71973Z" fill="#252525"/>
<path d="M1.89453 4.71973H3.78909V6.61428H1.89453V4.71973Z" fill="#252525"/>
<path d="M3.78906 4.71973H5.68362V6.61428H3.78906V4.71973Z" fill="#252525"/>
<path d="M5.68359 4.71973H7.57815V6.61428H5.68359V4.71973Z" fill="#252525"/>
<path d="M7.57812 4.71973H9.47268V6.61428H7.57812V4.71973Z" fill="#252525"/>
<path d="M9.4729 4.71973H11.3675V6.61428H9.4729V4.71973Z" fill="#252525"/>
<path d="M11.3674 4.71973H13.262V6.61428H11.3674V4.71973Z" fill="#252525"/>
<path d="M18.9456 4.71973H20.8401V6.61428H18.9456V4.71973Z" fill="#252525"/>
<path d="M20.8401 4.71973H22.7346V6.61428H20.8401V4.71973Z" fill="#252525"/>
<path d="M0 6.61438H1.89456V8.50894H0V6.61438Z" fill="#252525"/>
<path d="M1.89453 6.61438H3.78909V8.50894H1.89453V6.61438Z" fill="#252525"/>
<path d="M3.78906 6.61438H5.68362V8.50894H3.78906V6.61438Z" fill="#252525"/>
<path d="M5.68359 6.61438H7.57815V8.50894H5.68359V6.61438Z" fill="#252525"/>
<path d="M7.57812 6.61438H9.47268V8.50894H7.57812V6.61438Z" fill="#252525"/>
<path d="M22.7346 6.61438H24.6292V8.50894H22.7346V6.61438Z" fill="#252525"/>
<path d="M0 8.50891H1.89456V10.4035H0V8.50891Z" fill="#252525"/>
<path d="M1.89453 8.50891H3.78909V10.4035H1.89453V8.50891Z" fill="#252525"/>
<path d="M3.78906 8.50891H5.68362V10.4035H3.78906V8.50891Z" fill="#252525"/>
<path d="M5.68359 8.50891H7.57815V10.4035H5.68359V8.50891Z" fill="#252525"/>
<path d="M24.6292 8.50891H26.5237V10.4035H24.6292V8.50891Z" fill="#252525"/>
<path d="M0 10.4034H1.89456V12.298H0V10.4034Z" fill="#252525"/>
<path d="M1.89453 10.4034H3.78909V12.298H1.89453V10.4034Z" fill="#252525"/>
<path d="M3.78906 10.4034H5.68362V12.298H3.78906V10.4034Z" fill="#252525"/>
<path d="M5.68359 10.4034H7.57815V12.298H5.68359V10.4034Z" fill="#252525"/>
<path d="M11.3674 10.4034H13.262V12.298H11.3674V10.4034Z" fill="#252525"/>
<path d="M13.262 10.4034H15.1565V12.298H13.262V10.4034Z" fill="#252525"/>
<path d="M18.946 10.4034H20.8402V12.298H18.946V10.4034Z" fill="#252525"/>
<path d="M20.8401 10.4034H22.7346V12.298H20.8401V10.4034Z" fill="#252525"/>
<path d="M24.6292 10.4034H26.5237V12.298H24.6292V10.4034Z" fill="#252525"/>
<path d="M0 12.298H1.89456V14.1925H0V12.298Z" fill="#252525"/>
<path d="M1.89453 12.298H3.78909V14.1925H1.89453V12.298Z" fill="#252525"/>
<path d="M3.78906 12.298H5.68362V14.1925H3.78906V12.298Z" fill="#252525"/>
<path d="M5.68359 12.298H7.57815V14.1925H5.68359V12.298Z" fill="#252525"/>
<path d="M11.3674 12.298H13.262V14.1925H11.3674V12.298Z" fill="#252525"/>
<path d="M13.262 12.298H15.1565V14.1925H13.262V12.298Z" fill="#252525"/>
<path d="M18.9456 12.298H20.8401V14.1925H18.9456V12.298Z" fill="#252525"/>
<path d="M20.8401 12.298H22.7346V14.1925H20.8401V12.298Z" fill="#252525"/>
<path d="M24.6292 12.298H26.5237V14.1925H24.6292V12.298Z" fill="#252525"/>
<path d="M0 14.1925H1.89456V16.0871H0V14.1925Z" fill="#252525"/>
<path d="M1.89453 14.1925H3.78909V16.0871H1.89453V14.1925Z" fill="#252525"/>
<path d="M3.78906 14.1925H5.68362V16.0871H3.78906V14.1925Z" fill="#252525"/>
<path d="M5.68359 14.1925H7.57815V16.0871H5.68359V14.1925Z" fill="#252525"/>
<path d="M24.6292 14.1925H26.5237V16.0871H24.6292V14.1925Z" fill="#252525"/>
<path d="M1.89453 16.0872H3.78909V17.9821H1.89453V16.0872Z" fill="#252525"/>
<path d="M3.78906 16.0872H5.68362V17.9821H3.78906V16.0872Z" fill="#252525"/>
<path d="M5.68359 16.0872H7.57815V17.9821H5.68359V16.0872Z" fill="#252525"/>
<path d="M7.57812 16.0872H9.47268V17.9821H7.57812V16.0872Z" fill="#252525"/>
<path d="M9.4729 16.0872H11.3675V17.9821H9.4729V16.0872Z" fill="#252525"/>
<path d="M11.3674 16.0872H13.262V17.9821H11.3674V16.0872Z" fill="#252525"/>
<path d="M20.8401 16.0872H22.7346V17.9821H20.8401V16.0872Z" fill="#252525"/>
<path d="M22.7346 16.0872H24.6292V17.9821H22.7346V16.0872Z" fill="#252525"/>
<path d="M28.4185 16.0872H30.3134V17.9821H28.4185V16.0872Z" fill="#252525"/>
<path d="M30.3132 16.0872H32.2078V17.9821H30.3132V16.0872Z" fill="#252525"/>
<path d="M3.78906 17.9817H5.68362V19.8762H3.78906V17.9817Z" fill="#252525"/>
<path d="M5.68359 17.9817H7.57815V19.8762H5.68359V17.9817Z" fill="#252525"/>
<path d="M7.57812 17.9817H9.47268V19.8762H7.57812V17.9817Z" fill="#252525"/>
<path d="M9.4729 17.9817H11.3675V19.8762H9.4729V17.9817Z" fill="#252525"/>
<path d="M11.3674 17.9817H13.262V19.8762H11.3674V17.9817Z" fill="#252525"/>
<path d="M20.8401 17.9817H22.7346V19.8762H20.8401V17.9817Z" fill="#252525"/>
<path d="M26.5237 17.9817H28.4186V19.8762H26.5237V17.9817Z" fill="#252525"/>
<path d="M30.3132 17.9817H32.2078V19.8762H30.3132V17.9817Z" fill="#252525"/>
<path d="M5.68359 19.8762H7.57815V21.7708H5.68359V19.8762Z" fill="#252525"/>
<path d="M7.57812 19.8762H9.47268V21.7708H7.57812V19.8762Z" fill="#252525"/>
<path d="M9.4729 19.8762H11.3675V21.7708H9.4729V19.8762Z" fill="#252525"/>
<path d="M11.3674 19.8762H13.262V21.7708H11.3674V19.8762Z" fill="#252525"/>
<path d="M18.9456 19.8762H20.8401V21.7708H18.9456V19.8762Z" fill="#252525"/>
<path d="M24.6292 19.8762H26.5237V21.7708H24.6292V19.8762Z" fill="#252525"/>
<path d="M32.2078 19.8762H34.1023V21.7708H32.2078V19.8762Z" fill="#252525"/>
<path d="M9.4729 21.7708H11.3675V23.6653H9.4729V21.7708Z" fill="#252525"/>
<path d="M11.3674 21.7708H13.262V23.6653H11.3674V21.7708Z" fill="#252525"/>
<path d="M13.262 21.7708H15.1565V23.6653H13.262V21.7708Z" fill="#252525"/>
<path d="M15.1565 21.7708H17.0511V23.6653H15.1565V21.7708Z" fill="#252525"/>
<path d="M17.051 21.7708H18.9456V23.6653H17.051V21.7708Z" fill="#252525"/>
<path d="M18.9456 21.7708H20.8401V23.6653H18.9456V21.7708Z" fill="#252525"/>
<path d="M22.7346 21.7708H24.6292V23.6653H22.7346V21.7708Z" fill="#252525"/>
<path d="M26.5237 21.7708H28.4186V23.6653H26.5237V21.7708Z" fill="#252525"/>
<path d="M34.1023 21.7708H35.9969V23.6653H34.1023V21.7708Z" fill="#252525"/>
<path d="M9.4729 23.6653H11.3675V25.5598H9.4729V23.6653Z" fill="#252525"/>
<path d="M11.3674 23.6653H13.262V25.5598H11.3674V23.6653Z" fill="#252525"/>
<path d="M13.262 23.6653H15.1565V25.5598H13.262V23.6653Z" fill="#252525"/>
<path d="M15.1565 23.6653H17.0511V25.5598H15.1565V23.6653Z" fill="#252525"/>
<path d="M17.051 23.6653H18.9456V25.5598H17.051V23.6653Z" fill="#252525"/>
<path d="M18.9456 23.6653H20.8401V25.5598H18.9456V23.6653Z" fill="#252525"/>
<path d="M20.8401 23.6653H22.7346V25.5598H20.8401V23.6653Z" fill="#252525"/>
<path d="M24.6292 23.6653H26.5237V25.5598H24.6292V23.6653Z" fill="#252525"/>
<path d="M28.4185 23.6653H30.3134V25.5598H28.4185V23.6653Z" fill="#252525"/>
<path d="M34.1023 23.6653H35.9969V25.5598H34.1023V23.6653Z" fill="#252525"/>
<path d="M5.68359 25.5603H7.57815V27.4545H5.68359V25.5603Z" fill="#252525"/>
<path d="M7.57812 25.5603H9.47268V27.4545H7.57812V25.5603Z" fill="#252525"/>
<path d="M9.4729 25.5603H11.3675V27.4545H9.4729V25.5603Z" fill="#252525"/>
<path d="M11.3674 25.5603H13.262V27.4545H11.3674V25.5603Z" fill="#252525"/>
<path d="M13.262 25.5603H15.1565V27.4545H13.262V25.5603Z" fill="#252525"/>
<path d="M15.1565 25.5603H17.0511V27.4545H15.1565V25.5603Z" fill="#252525"/>
<path d="M17.051 25.5603H18.9456V27.4545H17.051V25.5603Z" fill="#252525"/>
<path d="M18.9456 25.5603H20.8401V27.4545H18.9456V25.5603Z" fill="#252525"/>
<path d="M22.7346 25.5603H24.6292V27.4545H22.7346V25.5603Z" fill="#252525"/>
<path d="M30.3132 25.5603H32.2078V27.4545H30.3132V25.5603Z" fill="#252525"/>
<path d="M34.1023 25.5603H35.9969V27.4545H34.1023V25.5603Z" fill="#252525"/>
<path d="M5.68359 27.4548H7.57815V29.3494H5.68359V27.4548Z" fill="#252525"/>
<path d="M7.57812 27.4548H9.47268V29.3494H7.57812V27.4548Z" fill="#252525"/>
<path d="M9.4729 27.4548H11.3675V29.3494H9.4729V27.4548Z" fill="#252525"/>
<path d="M11.3674 27.4548H13.262V29.3494H11.3674V27.4548Z" fill="#252525"/>
<path d="M13.262 27.4548H15.1565V29.3494H13.262V27.4548Z" fill="#252525"/>
<path d="M15.1565 27.4548H17.0511V29.3494H15.1565V27.4548Z" fill="#252525"/>
<path d="M17.051 27.4548H18.9456V29.3494H17.051V27.4548Z" fill="#252525"/>
<path d="M20.8401 27.4548H22.7346V29.3494H20.8401V27.4548Z" fill="#252525"/>
<path d="M32.2078 27.4548H34.1023V29.3494H32.2078V27.4548Z" fill="#252525"/>
<path d="M34.1023 27.4548H35.9969V29.3494H34.1023V27.4548Z" fill="#252525"/>
<path d="M3.78906 29.3494H5.68362V31.2439H3.78906V29.3494Z" fill="#252525"/>
<path d="M5.68359 29.3494H7.57815V31.2439H5.68359V29.3494Z" fill="#252525"/>
<path d="M7.57812 29.3494H9.47268V31.2439H7.57812V29.3494Z" fill="#252525"/>
<path d="M9.4729 29.3494H11.3675V31.2439H9.4729V29.3494Z" fill="#252525"/>
<path d="M11.3674 29.3494H13.262V31.2439H11.3674V29.3494Z" fill="#252525"/>
<path d="M13.262 29.3494H15.1565V31.2439H13.262V29.3494Z" fill="#252525"/>
<path d="M15.1565 29.3494H17.0511V31.2439H15.1565V29.3494Z" fill="#252525"/>
<path d="M18.9456 29.3494H20.8401V31.2439H18.9456V29.3494Z" fill="#252525"/>
<path d="M34.1023 29.3494H35.9969V31.2439H34.1023V29.3494Z" fill="#252525"/>
<path d="M3.78906 31.2439H5.68362V33.1385H3.78906V31.2439Z" fill="#252525"/>
<path d="M5.68359 31.2439H7.57815V33.1385H5.68359V31.2439Z" fill="#252525"/>
<path d="M7.57812 31.2439H9.47268V33.1385H7.57812V31.2439Z" fill="#252525"/>
<path d="M9.4729 31.2439H11.3675V33.1385H9.4729V31.2439Z" fill="#252525"/>
<path d="M11.3674 31.2439H13.262V33.1385H11.3674V31.2439Z" fill="#252525"/>
<path d="M13.262 31.2439H15.1565V33.1385H13.262V31.2439Z" fill="#252525"/>
<path d="M17.051 31.2439H18.9456V33.1385H17.051V31.2439Z" fill="#252525"/>
<path d="M18.9456 31.2439H20.8401V33.1385H18.9456V31.2439Z" fill="#252525"/>
<path d="M3.78906 33.1381L5.68362 33.1384V35.033H3.78906V33.1381Z" fill="#252525"/>
<path d="M5.68359 33.1381L7.57815 33.1384V35.033H5.68359V33.1381Z" fill="#252525"/>
<path d="M7.57812 33.1381L9.47268 33.1384V35.033H7.57812V33.1381Z" fill="#252525"/>
<path d="M9.4729 33.1381L11.3675 33.1384V35.033H9.4729V33.1381Z" fill="#252525"/>
<path d="M11.3674 33.1381L13.262 33.1384V35.033H11.3674V33.1381Z" fill="#252525"/>
<path d="M13.262 33.1381L15.1565 33.1384V35.033H13.262V33.1381Z" fill="#252525"/>
<path d="M15.1565 33.1381L17.0511 33.1384V35.033H15.1565V33.1381Z" fill="#252525"/>
<path d="M17.051 33.1381L18.9456 33.1384V35.033H17.051V33.1381Z" fill="#252525"/>
<path d="M18.9456 33.1381L20.8401 33.1384V35.033H18.9456V33.1381Z" fill="#252525"/>
</svg>
