<svg width="12" height="12" viewBox="0 0 12 12" fill="none" xmlns="http://www.w3.org/2000/svg">
<path d="M5.37503 11H2.45853C1.88327 10.9994 1.41708 10.5332 1.41653 9.95796V5.10796C1.00813 4.81815 0.880978 4.26872 1.12053 3.82896C1.57053 3.02496 2.02953 2.23246 2.48103 1.47296C2.66211 1.17646 2.98562 0.996856 3.33303 0.999916C3.54479 1.00207 3.75077 1.06927 3.92303 1.19246L3.93503 1.19996C4.14103 1.31996 6.13103 2.50446 7.73053 3.45596L9.15003 4.29996L9.21503 4.33846C10.324 4.99396 10.5735 5.14296 10.5875 5.15246C10.9958 5.44151 11.1213 5.99134 10.879 6.42896C10.4375 7.21746 9.97903 8.00996 9.51853 8.78496C9.33979 9.07825 9.02199 9.25815 8.67853 9.26046C8.61123 9.26049 8.54414 9.25294 8.47853 9.23796C8.42053 9.27246 8.10053 9.47796 7.69503 9.73796C6.97353 10.2005 5.98753 10.833 5.87353 10.8915C5.71972 10.9706 5.54782 11.008 5.37503 11ZM2.25003 6.51496V9.95796C2.25003 10.0731 2.34337 10.1665 2.45853 10.1665H4.37003C3.64353 8.93996 2.93053 7.71096 2.25003 6.51496ZM2.92903 6.01496C3.12903 6.35846 5.28703 10.081 5.30503 10.106C5.33345 10.1429 5.37743 10.1645 5.42403 10.1645C5.4486 10.1645 5.47281 10.1585 5.49453 10.147C5.56203 10.109 7.59153 8.80496 7.61153 8.79196C7.45453 8.69946 6.31853 8.02246 5.11553 7.30596L2.91903 5.99996L2.92253 6.00546L2.92753 6.01396V6.01696L2.92903 6.01496ZM3.16603 1.94996C2.76203 2.59996 1.85803 4.21396 1.84603 4.24346C1.81638 4.31428 1.84268 4.39615 1.90803 4.43646C1.97453 4.47596 8.58503 8.41446 8.64803 8.42446C8.65602 8.42504 8.66404 8.42504 8.67203 8.42446C8.72635 8.42465 8.77681 8.39638 8.80503 8.34996C9.21203 7.66646 10.1495 6.02146 10.152 6.01646C10.181 5.94534 10.1546 5.8637 10.0895 5.82296C10.026 5.78496 3.42803 1.86396 3.38553 1.84546C3.36621 1.83732 3.34548 1.83307 3.32453 1.83296C3.27187 1.83324 3.22287 1.8599 3.19403 1.90396L3.19053 1.90996L3.18653 1.91596L3.18053 1.92596V1.92846L3.17303 1.94046L3.16553 1.94996H3.16603ZM3.84253 4.69496C3.3828 4.69468 3.01021 4.32202 3.01003 3.86229C3.00985 3.40256 3.38214 3.0296 3.84186 3.02896C4.30159 3.02831 4.67492 3.40023 4.67603 3.85996C4.67548 4.32006 4.30263 4.6929 3.84253 4.69346V4.69496Z" fill="#44F1A6"/>
</svg>
