<svg width="12" height="12" viewBox="0 0 12 12" fill="none" xmlns="http://www.w3.org/2000/svg">
<path d="M9.99751 3.34399C10.4457 3.07604 10.7811 2.65411 10.941 2.15699C10.5198 2.4069 10.059 2.58293 9.57851 2.67749C8.9123 1.97276 7.85676 1.80126 7.00171 2.25882C6.14665 2.71639 5.70376 3.68974 5.92051 4.63499C4.19531 4.54838 2.58799 3.73345 1.49851 2.39299C0.929928 3.3737 1.22048 4.62739 2.16251 5.25799C1.82186 5.24704 1.48877 5.15481 1.19101 4.98899C1.19101 4.99799 1.19101 5.00699 1.19101 5.01599C1.1912 6.03757 1.91119 6.91753 2.91251 7.11999C2.59654 7.20596 2.26511 7.21861 1.94351 7.15699C2.22511 8.03063 3.03028 8.62914 3.94801 8.64699C3.18792 9.24356 2.24925 9.56708 1.28301 9.56549C1.11174 9.56574 0.940613 9.55589 0.770508 9.53599C1.7517 10.1665 2.89369 10.5012 4.06001 10.5C5.68263 10.5111 7.24202 9.87145 8.38937 8.724C9.53672 7.57656 10.1763 6.01712 10.165 4.39449C10.165 4.30149 10.1628 4.20899 10.1585 4.11699C10.5787 3.8133 10.9414 3.43707 11.2295 3.00599C10.838 3.17953 10.4227 3.29346 9.99751 3.34399Z" fill="#44F1A6"/>
</svg>
